# Blender 3.5.0
# www.blender.org
mtllib float_L_arm.mtl
o 立方体.002
v 0.387771 -1.136023 -0.253794
v 0.089203 -0.136769 -0.265753
v 0.756713 -1.027694 -0.249079
v 0.458145 -0.028440 -0.261038
v 0.381500 -1.132942 0.164860
v 0.082932 -0.133689 0.152901
v 0.750442 -1.024614 0.169575
v 0.451874 -0.025360 0.157616
vn 0.0150 -0.0075 -0.9999
vn 0.9580 0.2864 0.0122
vn -0.0150 0.0075 0.9999
vn -0.9580 -0.2864 -0.0122
vn 0.2816 -0.9595 0.0113
vn -0.2816 0.9595 -0.0113
vt 0.946581 0.661457
vt 0.719104 0.212748
vt 0.777966 0.830584
vt 0.946581 0.874206
vt 0.719104 0.425497
vt 0.868729 0.958914
vt 0.868729 0.661457
vt 0.888520 0.212748
vt 0.855818 0.830584
vt 0.868729 0.874206
vt 0.888520 0.425497
vt 0.946581 0.958914
vt 0.888520 0.000000
vt 0.803812 0.212748
vt 0.777966 0.915292
vt 0.888520 0.212748
vt 0.803812 0.425497
vt 0.868729 0.874206
vt 0.803812 0.212748
vt 0.966372 0.000000
vt 0.855818 0.915292
vt 0.803812 0.425497
vt 0.966372 0.212748
vt 0.946581 0.874206
s 1
usemtl マテリアル.002
f 1/1/1 2/4/1 4/10/1 3/7/1
f 3/8/2 4/11/2 8/22/2 7/19/2
f 7/20/3 8/23/3 6/16/3 5/13/3
f 5/14/4 6/17/4 2/5/4 1/2/4
f 3/9/5 7/21/5 5/15/5 1/3/5
f 8/24/6 4/12/6 2/6/6 6/18/6
