# Blender 3.5.0
# www.blender.org
mtllib float_Head.mtl
o Cube
v -0.616933 0.790856 -0.712585
v -0.620896 0.003557 -0.712949
v 0.536607 0.785151 -0.710610
v 0.532643 -0.002148 -0.710974
v -0.618910 0.790342 0.440968
v -0.622874 0.003043 0.440605
v 0.534629 0.784637 0.442943
v 0.530665 -0.002662 0.442580
vn 0.0049 1.0000 0.0005
vn 1.0000 -0.0050 0.0017
vn -0.0017 -0.0005 1.0000
vn -0.0049 -1.0000 -0.0005
vn 0.0017 0.0005 -1.0000
vn -1.0000 0.0050 -0.0017
vt 0.466743 0.448709
vt 0.466743 0.682080
vt 0.000000 0.682080
vt 0.700114 0.682080
vt 0.466743 0.448709
vt 0.000000 0.448709
vt 0.466743 0.682080
vt 0.233371 0.915452
vt 0.233371 0.682080
vt 0.233371 0.448709
vt 0.233371 0.682080
vt 0.700114 0.915452
vt 0.700114 0.448709
vt 0.233371 0.915452
vt 0.233371 0.682080
vt 0.466743 0.682080
vt 0.233371 0.448709
vt 0.233371 0.682080
vt 0.700114 0.682080
vt 0.000000 0.915452
vt 0.466743 0.915452
vt 0.000000 0.682080
vt 0.466743 0.682080
vt 0.466743 0.915452
s 1
usemtl Material
f 5/13/1 3/7/1 1/1/1
f 4/11/2 7/20/2 8/22/2
f 7/21/3 6/18/3 8/23/3
f 2/4/4 8/24/4 6/16/4
f 2/5/5 3/9/5 4/10/5
f 5/15/6 2/6/6 6/17/6
f 5/13/1 7/19/1 3/7/1
f 4/11/2 3/8/2 7/20/2
f 7/21/3 5/14/3 6/18/3
f 2/4/4 4/12/4 8/24/4
f 2/5/5 1/2/5 3/9/5
f 5/15/6 1/3/6 2/6/6
